<?xml version="1.0" standalone="no"?><svg xmlns="http://www.w3.org/2000/svg" viewBox="0 0 1440 320"><path fill="#0099ff" fill-opacity="0.2" d="M0,224L38.9,96L77.8,256L116.8,128L155.7,128L194.6,224L233.5,256L272.4,256L311.4,64L350.3,256L389.2,64L428.1,320L467,288L505.9,64L544.9,192L583.8,192L622.7,288L661.6,32L700.5,224L739.5,288L778.4,288L817.3,192L856.2,256L895.1,128L934.1,288L973,320L1011.9,0L1050.8,32L1089.7,192L1128.6,256L1167.6,192L1206.5,160L1245.4,320L1284.3,96L1323.2,224L1362.2,256L1401.1,96L1440,128L1440,320L1401.1,320L1362.2,320L1323.2,320L1284.3,320L1245.4,320L1206.5,320L1167.6,320L1128.6,320L1089.7,320L1050.8,320L1011.9,320L973,320L934.1,320L895.1,320L856.2,320L817.3,320L778.4,320L739.5,320L700.5,320L661.6,320L622.7,320L583.8,320L544.9,320L505.9,320L467,320L428.1,320L389.2,320L350.3,320L311.4,320L272.4,320L233.5,320L194.6,320L155.7,320L116.8,320L77.8,320L38.9,320L0,320Z"></path></svg>